<svg xmlns="http://www.w3.org/2000/svg" width="1600" height="900" viewBox="0 0 1600 900" role="img" aria-label="Matriz energética: hidráulica, solar y eólica">
  <defs>
    <linearGradient id="bg" x1="0" y1="0" x2="1" y2="1">
      <stop offset="0" stop-color="#F7FAF7"/>
      <stop offset="1" stop-color="#E6F4F1"/>
    </linearGradient>
    <linearGradient id="accent" x1="0" y1="0" x2="1" y2="0">
      <stop offset="0" stop-color="#0EA5A4"/>
      <stop offset="1" stop-color="#16A34A"/>
    </linearGradient>
    <filter id="grain" x="-20%" y="-20%" width="140%" height="140%">
      <feTurbulence type="fractalNoise" baseFrequency="0.9" numOctaves="2" stitchTiles="stitch" />
      <feColorMatrix type="matrix" values="
        1 0 0 0 0
        0 1 0 0 0
        0 0 1 0 0
        0 0 0 0.06 0" />
      <feBlend mode="multiply" in2="SourceGraphic" />
    </filter>
  </defs>

  <!-- Background -->
  <rect width="1600" height="900" fill="url(#bg)"/>
  <g filter="url(#grain)">
    <rect width="1600" height="900" fill="transparent"/>
  </g>

  <!-- Soft silhouette (abstract) -->
  <path d="M1050 120
           C980 170, 980 250, 1030 300
           C960 350, 960 430, 1020 490
           C990 560, 1030 620, 1120 650
           C1100 720, 1140 770, 1220 790
           C1300 810, 1350 780, 1380 730
           C1400 700, 1390 640, 1330 610
           C1380 560, 1360 500, 1300 470
           C1350 420, 1340 340, 1260 300
           C1290 230, 1230 170, 1150 160
           C1110 150, 1080 135, 1050 120 Z"
        fill="#0EA5A4" opacity="0.08"/>

  <!-- Trend line -->
  <path d="M180 620
           C320 560, 430 590, 560 520
           C700 440, 820 470, 960 380
           C1080 305, 1180 330, 1360 240"
        fill="none" stroke="url(#accent)" stroke-width="10" stroke-linecap="round"/>
  <g fill="#F59E0B" opacity="0.95">
    <circle cx="180" cy="620" r="10"/>
    <circle cx="560" cy="520" r="10"/>
    <circle cx="960" cy="380" r="10"/>
    <circle cx="1360" cy="240" r="10"/>
  </g>

  <!-- Hydropower (dam + water) -->
  <g transform="translate(140,520)">
    <rect x="0" y="-80" width="240" height="160" rx="18" fill="#0F766E" opacity="0.9"/>
    <rect x="25" y="-45" width="55" height="90" rx="10" fill="#E5E7EB" opacity="0.85"/>
    <rect x="95" y="-45" width="55" height="90" rx="10" fill="#E5E7EB" opacity="0.85"/>
    <rect x="165" y="-45" width="55" height="90" rx="10" fill="#E5E7EB" opacity="0.85"/>
    <path d="M-30 95 C10 75, 60 115, 100 95 C140 75, 190 115, 230 95 C270 75, 320 115, 360 95"
          fill="none" stroke="#0EA5A4" stroke-width="10" stroke-linecap="round" opacity="0.8"/>
    <path d="M-20 130 C20 110, 70 150, 110 130 C150 110, 200 150, 240 130 C280 110, 330 150, 370 130"
          fill="none" stroke="#0EA5A4" stroke-width="10" stroke-linecap="round" opacity="0.55"/>
  </g>

  <!-- Solar panels -->
  <g transform="translate(520,600) rotate(-8)">
    <rect x="0" y="0" width="320" height="160" rx="14" fill="#0B3B3A" opacity="0.92"/>
    <g stroke="#22C55E" stroke-opacity="0.55">
      <path d="M20 30 H300" stroke-width="4"/>
      <path d="M20 70 H300" stroke-width="4"/>
      <path d="M20 110 H300" stroke-width="4"/>
      <path d="M70 20 V140" stroke-width="4"/>
      <path d="M140 20 V140" stroke-width="4"/>
      <path d="M210 20 V140" stroke-width="4"/>
      <path d="M280 20 V140" stroke-width="4"/>
    </g>
    <rect x="40" y="165" width="240" height="14" rx="7" fill="#334155" opacity="0.7"/>
  </g>

  <!-- Wind turbines -->
  <g transform="translate(1040,520)">
    <g transform="translate(0,0)">
      <rect x="72" y="40" width="14" height="250" rx="7" fill="#0F172A" opacity="0.75"/>
      <circle cx="79" cy="40" r="10" fill="#0F172A" opacity="0.75"/>
      <path d="M79 40 L10 10" stroke="#0F172A" stroke-width="10" stroke-linecap="round" opacity="0.75"/>
      <path d="M79 40 L145 0" stroke="#0F172A" stroke-width="10" stroke-linecap="round" opacity="0.75"/>
      <path d="M79 40 L120 120" stroke="#0F172A" stroke-width="10" stroke-linecap="round" opacity="0.75"/>
    </g>
    <g transform="translate(220,40) scale(0.9)">
      <rect x="72" y="40" width="14" height="250" rx="7" fill="#0F172A" opacity="0.62"/>
      <circle cx="79" cy="40" r="10" fill="#0F172A" opacity="0.62"/>
      <path d="M79 40 L12 22" stroke="#0F172A" stroke-width="10" stroke-linecap="round" opacity="0.62"/>
      <path d="M79 40 L150 18" stroke="#0F172A" stroke-width="10" stroke-linecap="round" opacity="0.62"/>
      <path d="M79 40 L100 128" stroke="#0F172A" stroke-width="10" stroke-linecap="round" opacity="0.62"/>
    </g>
  </g>

  <!-- Bottom band -->
  <rect x="0" y="780" width="1600" height="120" fill="#0F172A" opacity="0.04"/>
</svg>

